<mxfile host="65bd71144e">
    <diagram id="ZxcNrr2-RxVxVpdg4Wmk" name="Page-1">
        <mxGraphModel dx="719" dy="617" grid="1" gridSize="10" guides="1" tooltips="1" connect="1" arrows="1" fold="1" page="1" pageScale="1" pageWidth="850" pageHeight="1100" math="0" shadow="0">
            <root>
                <mxCell id="0"/>
                <mxCell id="1" parent="0"/>
                <mxCell id="-XX0d6gznkLsI2aIMCxq-1" value="" style="endArrow=none;html=1;rounded=0;" parent="1" edge="1">
                    <mxGeometry width="50" height="50" relative="1" as="geometry">
                        <mxPoint x="350" y="660" as="sourcePoint"/>
                        <mxPoint x="350" y="150" as="targetPoint"/>
                        <Array as="points">
                            <mxPoint x="350" y="280"/>
                        </Array>
                    </mxGeometry>
                </mxCell>
                <mxCell id="-XX0d6gznkLsI2aIMCxq-2" value="" style="endArrow=none;html=1;rounded=0;" parent="1" edge="1">
                    <mxGeometry width="50" height="50" relative="1" as="geometry">
                        <mxPoint x="580" y="660" as="sourcePoint"/>
                        <mxPoint x="580" y="150" as="targetPoint"/>
                        <Array as="points">
                            <mxPoint x="580" y="280"/>
                        </Array>
                    </mxGeometry>
                </mxCell>
                <mxCell id="-XX0d6gznkLsI2aIMCxq-3" value="" style="endArrow=none;html=1;rounded=0;" parent="1" edge="1">
                    <mxGeometry width="50" height="50" relative="1" as="geometry">
                        <mxPoint x="470" y="660" as="sourcePoint"/>
                        <mxPoint x="470" y="150" as="targetPoint"/>
                        <Array as="points">
                            <mxPoint x="470" y="280"/>
                        </Array>
                    </mxGeometry>
                </mxCell>
                <mxCell id="-XX0d6gznkLsI2aIMCxq-4" value="" style="endArrow=none;html=1;rounded=0;" parent="1" edge="1">
                    <mxGeometry width="50" height="50" relative="1" as="geometry">
                        <mxPoint x="200" y="660" as="sourcePoint"/>
                        <mxPoint x="200" y="150" as="targetPoint"/>
                        <Array as="points">
                            <mxPoint x="200" y="280"/>
                        </Array>
                    </mxGeometry>
                </mxCell>
                <mxCell id="-XX0d6gznkLsI2aIMCxq-5" value="student" style="text;html=1;align=center;verticalAlign=middle;resizable=0;points=[];autosize=1;strokeColor=none;fillColor=none;" parent="1" vertex="1">
                    <mxGeometry x="255" y="160" width="50" height="20" as="geometry"/>
                </mxCell>
                <mxCell id="-XX0d6gznkLsI2aIMCxq-6" value="super Manger" style="text;html=1;align=center;verticalAlign=middle;resizable=0;points=[];autosize=1;strokeColor=none;fillColor=none;" parent="1" vertex="1">
                    <mxGeometry x="355" y="150" width="90" height="20" as="geometry"/>
                </mxCell>
                <mxCell id="-XX0d6gznkLsI2aIMCxq-7" value="data base" style="text;html=1;align=center;verticalAlign=middle;resizable=0;points=[];autosize=1;strokeColor=none;fillColor=none;" parent="1" vertex="1">
                    <mxGeometry x="505" y="160" width="70" height="20" as="geometry"/>
                </mxCell>
                <mxCell id="-XX0d6gznkLsI2aIMCxq-8" style="edgeStyle=orthogonalEdgeStyle;rounded=0;orthogonalLoop=1;jettySize=auto;html=1;exitX=0.5;exitY=1;exitDx=0;exitDy=0;" parent="1" source="-XX0d6gznkLsI2aIMCxq-9" target="-XX0d6gznkLsI2aIMCxq-11" edge="1">
                    <mxGeometry relative="1" as="geometry">
                        <Array as="points">
                            <mxPoint x="270" y="210"/>
                        </Array>
                    </mxGeometry>
                </mxCell>
                <mxCell id="-XX0d6gznkLsI2aIMCxq-9" value="" style="ellipse;html=1;shape=startState;fillColor=#000000;strokeColor=#0F0000;" parent="1" vertex="1">
                    <mxGeometry x="255" y="190" width="15" height="20" as="geometry"/>
                </mxCell>
                <mxCell id="-XX0d6gznkLsI2aIMCxq-10" style="edgeStyle=orthogonalEdgeStyle;rounded=0;orthogonalLoop=1;jettySize=auto;html=1;entryX=0;entryY=0.5;entryDx=0;entryDy=0;" parent="1" source="-XX0d6gznkLsI2aIMCxq-11" target="-XX0d6gznkLsI2aIMCxq-14" edge="1">
                    <mxGeometry relative="1" as="geometry"/>
                </mxCell>
                <mxCell id="-XX0d6gznkLsI2aIMCxq-11" value="apply to register" style="whiteSpace=wrap;html=1;align=center;strokeColor=#0F0000;" parent="1" vertex="1">
                    <mxGeometry x="220" y="240" width="100" height="40" as="geometry"/>
                </mxCell>
                <mxCell id="-XX0d6gznkLsI2aIMCxq-12" style="edgeStyle=orthogonalEdgeStyle;rounded=0;orthogonalLoop=1;jettySize=auto;html=1;exitX=1;exitY=0;exitDx=0;exitDy=0;entryX=1;entryY=0.5;entryDx=0;entryDy=0;" parent="1" source="-XX0d6gznkLsI2aIMCxq-9" target="-XX0d6gznkLsI2aIMCxq-9" edge="1">
                    <mxGeometry relative="1" as="geometry"/>
                </mxCell>
                <mxCell id="-XX0d6gznkLsI2aIMCxq-13" style="edgeStyle=orthogonalEdgeStyle;rounded=0;orthogonalLoop=1;jettySize=auto;html=1;entryX=1.02;entryY=0.633;entryDx=0;entryDy=0;entryPerimeter=0;" parent="1" source="-XX0d6gznkLsI2aIMCxq-14" target="-XX0d6gznkLsI2aIMCxq-18" edge="1">
                    <mxGeometry relative="1" as="geometry">
                        <mxPoint x="410" y="360" as="targetPoint"/>
                        <Array as="points">
                            <mxPoint x="410" y="358"/>
                        </Array>
                    </mxGeometry>
                </mxCell>
                <mxCell id="-XX0d6gznkLsI2aIMCxq-14" value="check the application - verify the student by card and extract university." style="whiteSpace=wrap;html=1;align=center;strokeColor=#0F0000;" parent="1" vertex="1">
                    <mxGeometry x="360" y="240" width="100" height="70" as="geometry"/>
                </mxCell>
                <mxCell id="-XX0d6gznkLsI2aIMCxq-15" style="edgeStyle=orthogonalEdgeStyle;rounded=0;orthogonalLoop=1;jettySize=auto;html=1;entryX=1;entryY=0.75;entryDx=0;entryDy=0;" parent="1" source="-XX0d6gznkLsI2aIMCxq-16" target="-XX0d6gznkLsI2aIMCxq-20" edge="1">
                    <mxGeometry relative="1" as="geometry">
                        <Array as="points">
                            <mxPoint x="520" y="430"/>
                        </Array>
                    </mxGeometry>
                </mxCell>
                <mxCell id="-XX0d6gznkLsI2aIMCxq-16" value="Added the student by the university code." style="whiteSpace=wrap;html=1;align=center;strokeColor=#0F0000;" parent="1" vertex="1">
                    <mxGeometry x="475" y="310" width="100" height="60" as="geometry"/>
                </mxCell>
                <mxCell id="-XX0d6gznkLsI2aIMCxq-17" style="edgeStyle=orthogonalEdgeStyle;rounded=0;orthogonalLoop=1;jettySize=auto;html=1;entryX=0;entryY=0.5;entryDx=0;entryDy=0;" parent="1" source="-XX0d6gznkLsI2aIMCxq-18" target="-XX0d6gznkLsI2aIMCxq-23" edge="1">
                    <mxGeometry relative="1" as="geometry">
                        <Array as="points">
                            <mxPoint x="220" y="350"/>
                            <mxPoint x="220" y="565"/>
                        </Array>
                    </mxGeometry>
                </mxCell>
                <mxCell id="-XX0d6gznkLsI2aIMCxq-18" value="application didn't approve." style="whiteSpace=wrap;html=1;align=center;strokeColor=#0F0000;" parent="1" vertex="1">
                    <mxGeometry x="230" y="320" width="100" height="60" as="geometry"/>
                </mxCell>
                <mxCell id="-XX0d6gznkLsI2aIMCxq-19" style="edgeStyle=orthogonalEdgeStyle;rounded=0;orthogonalLoop=1;jettySize=auto;html=1;entryX=1;entryY=0.5;entryDx=0;entryDy=0;" parent="1" source="-XX0d6gznkLsI2aIMCxq-20" target="-XX0d6gznkLsI2aIMCxq-22" edge="1">
                    <mxGeometry relative="1" as="geometry"/>
                </mxCell>
                <mxCell id="-XX0d6gznkLsI2aIMCxq-20" value="Get green light - meaning database finished" style="whiteSpace=wrap;html=1;strokeColor=#0F0000;" parent="1" vertex="1">
                    <mxGeometry x="360" y="400" width="100" height="50" as="geometry"/>
                </mxCell>
                <mxCell id="-XX0d6gznkLsI2aIMCxq-21" style="edgeStyle=orthogonalEdgeStyle;rounded=0;orthogonalLoop=1;jettySize=auto;html=1;" parent="1" source="-XX0d6gznkLsI2aIMCxq-22" target="-XX0d6gznkLsI2aIMCxq-23" edge="1">
                    <mxGeometry relative="1" as="geometry"/>
                </mxCell>
                <mxCell id="-XX0d6gznkLsI2aIMCxq-22" value="reply back - register successfully.&amp;nbsp;" style="whiteSpace=wrap;html=1;strokeColor=#0F0000;" parent="1" vertex="1">
                    <mxGeometry x="235" y="420" width="90" height="40" as="geometry"/>
                </mxCell>
                <mxCell id="-XX0d6gznkLsI2aIMCxq-23" value="" style="ellipse;html=1;shape=endState;fillColor=#000000;strokeColor=#050000;" parent="1" vertex="1">
                    <mxGeometry x="265" y="550" width="30" height="30" as="geometry"/>
                </mxCell>
                <mxCell id="2" value="&lt;font style=&quot;font-size: 19px&quot;&gt;Activity diagram&lt;/font&gt;" style="text;html=1;align=center;verticalAlign=middle;resizable=0;points=[];autosize=1;strokeColor=none;" vertex="1" parent="1">
                    <mxGeometry x="325" y="70" width="150" height="20" as="geometry"/>
                </mxCell>
            </root>
        </mxGraphModel>
    </diagram>
</mxfile>